<svg width="173" height="37" viewBox="0 0 173 37" fill="none" xmlns="http://www.w3.org/2000/svg">
<path d="M0.835907 36.7227H12.7793C13.2958 27.1159 13.8138 17.5091 14.3303 7.90236C14.9244 7.81714 15.6472 7.73656 16.4739 7.68698C16.8524 7.66529 17.5209 7.64359 18.4174 7.64359C20.2601 7.64359 21.6235 7.78925 22.5077 8.07435C23.3933 8.3579 24.0417 8.79176 24.4527 9.37281C24.8637 9.95232 25.0685 10.6279 25.0685 11.398C25.0685 12.306 24.7955 13.1737 24.2511 13.9949C23.7051 14.8161 22.8985 15.4235 21.836 15.8186C20.7735 16.2091 19.5885 16.4059 18.284 16.4059C17.3549 16.4059 16.4072 16.316 15.4425 16.1378L18.2049 23.721C19.0472 26.0065 19.6831 27.7822 20.1128 29.0497C20.3268 29.623 20.5874 30.4349 20.8914 31.4901C21.6421 34.008 22.1649 35.7326 22.4487 36.6607C25.0902 36.6452 27.7333 36.6297 30.3747 36.6127C31.0743 24.4477 31.7707 12.2858 32.4703 0.119324C22.6488 0.13172 12.8289 0.142568 3.00742 0.154963C2.28307 12.3447 1.56026 24.5329 0.835907 36.7227Z" fill="#A2FF00"/>
<path d="M57.2953 31.7643C56.4624 30.8036 55.8032 29.8523 55.2789 28.9753C51.9674 28.9474 48.6543 28.9195 45.3427 28.8916L45.6622 22.3791C47.9888 22.3574 50.3155 22.3342 52.6421 22.3125C52.3598 21.1302 52.1101 19.5405 52.1768 17.6641C52.2249 16.3424 52.4172 15.1926 52.6421 14.2552C50.4985 14.2304 48.3549 14.2056 46.2113 14.1808C46.3385 12.0875 46.4657 9.99569 46.5929 7.90234H55.1238C56.0033 6.38695 57.5047 4.25022 59.9322 2.32422C61.2599 1.27057 62.5535 0.526823 63.6548 0C54.1513 0.0294401 44.6478 0.0588813 35.1443 0.0883214C34.4107 12.2998 33.677 24.5112 32.9433 36.7227H63.8099C62.0168 35.8549 59.5289 34.3442 57.2953 31.7643Z" fill="#A2FF00"/>
<path d="M84.4393 36.7227C84.5014 35.5962 84.5634 34.4682 84.6254 33.3417C84.9775 26.9795 85.3281 20.6174 85.6802 14.2552H76.3737C76.2697 16.9931 76.1674 19.7295 76.0635 22.4675H80.7167C80.6174 24.5035 80.5182 26.5395 80.4189 28.5771C79.3735 28.8715 77.8612 29.1488 76.0635 28.9753C72.8791 28.6685 70.7743 27.1438 70.3244 26.806C68.6601 25.5571 67.7962 24.1579 67.5325 23.707C67.2223 23.1756 66.2497 21.4014 66.1365 18.9037C66.045 16.88 66.5646 15.3863 66.6872 15.0455C66.7663 14.8285 67.1416 13.8152 67.9466 12.6655C68.1545 12.3695 68.6632 11.6738 69.4682 10.9223C69.8219 10.5922 71.1015 9.43789 72.9613 8.67709C74.5899 8.01082 75.8897 7.96588 78.3901 7.90235C81.6985 7.81868 84.3059 7.77375 85.9904 7.74741C86.0571 6.63178 86.1238 5.51616 86.192 4.40053C86.2773 2.95951 86.3642 1.5185 86.4511 0.0774841H71.0519C69.9336 0.257224 68.8277 0.500494 67.6535 0.883215C67.5558 0.914205 67.458 0.94674 67.3619 0.980828C67.2626 1.01337 67.1649 1.04746 67.0672 1.08465C66.6903 1.221 66.3444 1.35735 66.0388 1.48441C65.9954 1.50145 65.9535 1.52005 65.9101 1.53864C65.803 1.58203 65.696 1.63006 65.5905 1.67809C65.5052 1.71838 65.423 1.75557 65.3455 1.78966C65.2958 1.81135 65.2477 1.83459 65.1997 1.85939C65.0353 1.93841 64.8988 2.00658 64.7917 2.06082C64.7002 2.1073 64.6304 2.14449 64.5854 2.16928C64.542 2.19252 64.497 2.21732 64.4505 2.24211C64.4458 2.24521 64.4396 2.2483 64.435 2.2514C63.6455 2.68836 62.3751 3.46465 61.0179 4.64845C60.5092 5.0916 57.6056 7.68233 55.9226 11.5607C55.9195 11.5684 55.9164 11.5762 55.9133 11.5824C55.6729 12.1371 55.4589 12.7197 55.2789 13.3255C54.9904 14.2971 54.8415 15.1756 54.8136 15.3399C54.7174 15.9163 54.4615 17.6222 54.6585 19.8333C54.8617 22.1157 55.4651 24.0123 56.0545 25.4115C56.3461 26.0421 56.7338 26.7936 57.2442 27.6086C57.2566 27.6288 57.2674 27.6474 57.2798 27.666C57.8785 28.6158 58.6448 29.6493 59.622 30.6797C59.8034 30.8718 59.9865 31.0562 60.1679 31.2344C60.1835 31.2484 60.199 31.2623 60.2129 31.2778C62.1239 33.1279 64.0457 34.2296 65.361 34.8633C65.7581 35.0539 66.5863 35.3994 67.8039 35.7387C68.0583 35.8085 68.3297 35.8797 68.6183 35.9479C69.8917 36.2501 71.2923 36.4624 72.7224 36.608H72.724C73.1598 36.6514 73.5972 36.6901 74.0362 36.7227H84.4393Z" fill="#A2FF00"/>
<path d="M86.9211 36.7227C94.0173 36.7072 101.115 36.6932 108.211 36.6777C108.352 34.1102 108.494 31.5427 108.636 28.9753C105.505 28.9474 102.371 28.9195 99.2398 28.8916L99.5593 22.3791C102.688 22.4086 105.818 22.438 108.946 22.4674C109.102 19.7295 109.257 16.9931 109.412 14.2552C106.311 14.2304 103.209 14.2056 100.108 14.1808C100.211 12.0875 100.313 9.99568 100.416 7.90234H109.877C110.032 5.31936 110.187 2.73792 110.342 0.15494C103.245 0.110005 96.1485 0.0650696 89.0523 0.0185852C88.3419 12.2533 87.6315 24.488 86.9211 36.7227Z" fill="#A2FF00"/>
<path d="M139.472 23.9426L137.894 20.887L126.443 0.0883214C121.903 0.0588813 117.363 0.0294401 112.823 0C112.047 12.1898 111.272 24.378 110.496 36.5677C114.012 36.6188 117.527 36.6715 121.043 36.7227C121.457 29.1813 121.87 21.6416 122.284 14.1003C126.782 21.6416 131.28 29.1813 135.779 36.7227C139.39 36.7072 143.002 36.6932 146.613 36.6777C147.151 27.5172 147.689 18.3582 148.226 9.19771H140.323C140.039 14.1127 139.754 19.0261 139.47 23.941L139.472 23.9426Z" fill="#A2FF00"/>
<path d="M172.386 0C160.874 0.00619792 149.36 0.0123951 137.848 0.018593C137.727 2.64651 137.607 5.27443 137.486 7.90234H150.886C150.872 8.16266 150.857 8.43536 150.857 8.43846C150.574 13.5626 149.579 31.5536 149.295 36.6777H158.713C159.214 26.5829 159.617 19.0787 159.782 16.1657C159.886 14.3079 160.039 11.7621 160.295 8.50199C160.311 8.30366 160.328 8.10223 160.343 7.90234H171.92L172.386 0Z" fill="#A2FF00"/>
</svg>
