<svg width="172" height="37" viewBox="0 0 172 37" fill="none" xmlns="http://www.w3.org/2000/svg">
<path d="M0 36.7227H11.9433C12.4599 27.1159 12.9779 17.5091 13.4944 7.90234C14.0885 7.81712 14.8113 7.73655 15.638 7.68696C16.0165 7.66527 16.685 7.64358 17.5815 7.64358C19.4242 7.64358 20.7876 7.78923 21.6717 8.07433C22.5574 8.35789 23.2058 8.79174 23.6168 9.3728C24.0278 9.9523 24.2326 10.6279 24.2326 11.398C24.2326 12.306 23.9596 13.1737 23.4152 13.9949C22.8692 14.8161 22.0626 15.4235 21.0001 15.8186C19.9376 16.2091 18.7526 16.4059 17.4481 16.4059C16.519 16.4059 15.5713 16.316 14.6066 16.1378L17.369 23.721C18.2113 26.0065 18.8472 27.7822 19.2769 29.0496C19.4909 29.6229 19.7515 30.4349 20.0555 31.4901C20.8062 34.008 21.329 35.7325 21.6128 36.6607C24.2543 36.6452 26.8973 36.6297 29.5388 36.6126C30.2384 24.4477 30.9348 12.2858 31.6344 0.119308C21.8129 0.131704 11.993 0.142552 2.17152 0.154948C1.44716 12.3447 0.724356 24.5329 0 36.7227Z" fill="white"/>
<path d="M56.4594 31.7643C55.6265 30.8036 54.9673 29.8523 54.443 28.9753C51.1315 28.9474 47.8184 28.9195 44.5068 28.8916L44.8263 22.3791C47.1529 22.3574 49.4796 22.3342 51.8062 22.3125C51.5239 21.1302 51.2742 19.5405 51.3409 17.6641C51.3889 16.3424 51.5813 15.1926 51.8062 14.2552C49.6626 14.2304 47.519 14.2056 45.3754 14.1808C45.5026 12.0875 45.6298 9.99569 45.757 7.90234H54.2879C55.1674 6.38695 56.6688 4.25022 59.0963 2.32422C60.424 1.27057 61.7176 0.526823 62.8189 0C53.3154 0.0294401 43.8119 0.0588813 34.3084 0.0883214C33.5747 12.2998 32.8411 24.5112 32.1074 36.7227H62.974C61.1809 35.8549 58.693 34.3442 56.4594 31.7643Z" fill="white"/>
<path d="M83.6034 36.7227C83.6654 35.5962 83.7275 34.4682 83.7895 33.3417C84.1416 26.9795 84.4922 20.6174 84.8443 14.2552H75.5378C75.4338 16.9931 75.3315 19.7295 75.2275 22.4675H79.8808C79.7815 24.5035 79.6823 26.5395 79.583 28.5771C78.5376 28.8715 77.0253 29.1488 75.2275 28.9753C72.0432 28.6685 69.9384 27.1438 69.4885 26.806C67.8242 25.5571 66.9603 24.1579 66.6966 23.707C66.3864 23.1756 65.4138 21.4014 65.3006 18.9037C65.2091 16.88 65.7287 15.3863 65.8512 15.0455C65.9303 14.8285 66.3057 13.8152 67.1107 12.6655C67.3186 12.3695 67.8273 11.6738 68.6323 10.9223C68.986 10.5922 70.2656 9.43789 72.1254 8.67709C73.754 8.01082 75.0538 7.96588 77.5542 7.90235C80.8626 7.81868 83.47 7.77375 85.1545 7.74741C85.2212 6.63178 85.2879 5.51616 85.3561 4.40053C85.4414 2.95951 85.5283 1.5185 85.6152 0.0774841H70.216C69.0977 0.257224 67.9917 0.500494 66.8176 0.883215C66.7199 0.914205 66.6221 0.94674 66.526 0.980828C66.4267 1.01337 66.329 1.04746 66.2313 1.08465C65.8543 1.221 65.5085 1.35735 65.2029 1.48441C65.1595 1.50145 65.1176 1.52005 65.0741 1.53864C64.9671 1.58203 64.8601 1.63006 64.7546 1.67809C64.6693 1.71838 64.5871 1.75557 64.5096 1.78966C64.4599 1.81135 64.4118 1.83459 64.3638 1.85939C64.1993 1.93841 64.0628 2.00658 63.9558 2.06082C63.8643 2.1073 63.7945 2.14449 63.7495 2.16928C63.7061 2.19252 63.6611 2.21732 63.6146 2.24211C63.6099 2.24521 63.6037 2.2483 63.5991 2.2514C62.8096 2.68836 61.5392 3.46465 60.182 4.64845C59.6733 5.0916 56.7696 7.68233 55.0867 11.5607C55.0836 11.5684 55.0805 11.5762 55.0774 11.5824C54.837 12.1371 54.6229 12.7197 54.443 13.3255C54.1545 14.2971 54.0056 15.1756 53.9777 15.3399C53.8815 15.9163 53.6256 17.6222 53.8226 19.8333C54.0258 22.1157 54.6292 24.0123 55.2186 25.4115C55.5102 26.0421 55.8979 26.7936 56.4082 27.6086C56.4207 27.6288 56.4315 27.6474 56.4439 27.666C57.0426 28.6158 57.8089 29.6493 58.7861 30.6797C58.9675 30.8718 59.1506 31.0562 59.332 31.2344C59.3476 31.2484 59.3631 31.2623 59.377 31.2778C61.288 33.1279 63.2097 34.2296 64.5251 34.8633C64.9221 35.0539 65.7504 35.3994 66.968 35.7387C67.2224 35.8085 67.4938 35.8797 67.7823 35.9479C69.0558 36.2501 70.4564 36.4624 71.8865 36.608H71.8881C72.3239 36.6514 72.7613 36.6901 73.2003 36.7227H83.6034Z" fill="white"/>
<path d="M86.0852 36.7227C93.1814 36.7072 100.279 36.6932 107.375 36.6777C107.516 34.1102 107.658 31.5427 107.8 28.9753C104.669 28.9474 101.536 28.9195 98.4039 28.8916L98.7234 22.3791C101.852 22.4086 104.982 22.438 108.111 22.4674C108.266 19.7295 108.421 16.9931 108.576 14.2552C105.475 14.2304 102.373 14.2056 99.2725 14.1808C99.3749 12.0875 99.4772 9.99568 99.5796 7.90234H109.041C109.196 5.31936 109.351 2.73792 109.507 0.15494C102.409 0.110005 95.3126 0.0650696 88.2164 0.0185852C87.506 12.2533 86.7956 24.488 86.0852 36.7227Z" fill="white"/>
<path d="M138.636 23.9426L137.058 20.887L125.607 0.0883214C121.067 0.0588813 116.527 0.0294401 111.987 0C111.211 12.1898 110.436 24.378 109.66 36.5677C113.176 36.6188 116.691 36.6715 120.207 36.7227C120.622 29.1813 121.034 21.6416 121.448 14.1003C125.946 21.6416 130.445 29.1813 134.943 36.7227C138.554 36.7072 142.166 36.6932 145.777 36.6777C146.315 27.5172 146.854 18.3582 147.39 9.19771H139.487C139.204 14.1127 138.918 19.0261 138.634 23.941L138.636 23.9426Z" fill="white"/>
<path d="M171.55 0C160.038 0.00619792 148.524 0.0123951 137.012 0.018593C136.891 2.64651 136.771 5.27443 136.65 7.90234H150.05C150.036 8.16266 150.021 8.43536 150.021 8.43846C149.739 13.5626 148.743 31.5536 148.459 36.6777H157.877C158.378 26.5829 158.781 19.0787 158.946 16.1657C159.05 14.3079 159.203 11.7621 159.459 8.50199C159.475 8.30366 159.492 8.10223 159.507 7.90234H171.085L171.55 0Z" fill="white"/>
</svg>
